<?xml version="1.0" encoding="utf-8"?>
<COLLADA xmlns="http://www.collada.org/2005/11/COLLADASchema" version="1.4.1" xmlns:xsi="http://www.w3.org/2001/XMLSchema-instance">
  <asset>
    <contributor>
      <author>Blender User</author>
      <authoring_tool>Blender 3.0.1</authoring_tool>
    </contributor>
    <created>2025-10-22T06:27:50</created>
    <modified>2025-10-22T06:27:50</modified>
    <unit name="meter" meter="1"/>
    <up_axis>Z_UP</up_axis>
  </asset>
  <library_images/>
  <library_geometries>
    <geometry id="立方体-mesh" name="立方体">
      <mesh>
        <source id="立方体-mesh-positions">
          <float_array id="立方体-mesh-positions-array" count="24">-3.625148 -3.671999 -1.494161 3.630329 -3.671999 1.494161 -3.625148 3.671999 -1.494161 3.620305 3.656349 1.482294 3.625148 -3.671999 -1.494161 3.625148 -3.671999 1.494161 3.625148 3.671999 -1.494161 3.625148 3.671999 1.494161</float_array>
          <technique_common>
            <accessor source="#立方体-mesh-positions-array" count="8" stride="3">
              <param name="X" type="float"/>
              <param name="Y" type="float"/>
              <param name="Z" type="float"/>
            </accessor>
          </technique_common>
        </source>
        <source id="立方体-mesh-normals">
          <float_array id="立方体-mesh-normals-array" count="30">-0.3799892 0 0.9249909 0 1 0 1 0 0 0 -1 0 0 0 -1 -0.9258709 0 0.3778399 0 1 -3.60898e-6 -0.3291833 -0.5037688 0.7986586 -0.3808339 9.76416e-4 0.924643 0 -0.001619398 -0.9999988</float_array>
          <technique_common>
            <accessor source="#立方体-mesh-normals-array" count="10" stride="3">
              <param name="X" type="float"/>
              <param name="Y" type="float"/>
              <param name="Z" type="float"/>
            </accessor>
          </technique_common>
        </source>
        <source id="立方体-mesh-map-0">
          <float_array id="立方体-mesh-map-0-array" count="72">0.375 0 0.625 0.25 0.375 0.25 0.375 0.25 0.625 0.5 0.375 0.5 0.625 0.5 0.375 0.75 0.375 0.5 0.375 0.75 0.625 0.75 0.375 1 0.375 0.5 0.125 0.75 0.125 0.5 0.875 0.5 0.625 0.75 0.625 0.5 0.375 1 0.625 0.75 0.625 1 0.625 0.5 0.375 0.25 0.625 0.25 0.375 0 0.625 0 0.625 0.25 0.625 0.5 0.625 0.75 0.375 0.75 0.375 0.5 0.375 0.75 0.125 0.75 0.875 0.5 0.875 0.75 0.625 0.75</float_array>
          <technique_common>
            <accessor source="#立方体-mesh-map-0-array" count="36" stride="2">
              <param name="S" type="float"/>
              <param name="T" type="float"/>
            </accessor>
          </technique_common>
        </source>
        <vertices id="立方体-mesh-vertices">
          <input semantic="POSITION" source="#立方体-mesh-positions"/>
        </vertices>
        <triangles count="12">
          <input semantic="VERTEX" source="#立方体-mesh-vertices" offset="0"/>
          <input semantic="NORMAL" source="#立方体-mesh-normals" offset="1"/>
          <input semantic="TEXCOORD" source="#立方体-mesh-map-0" offset="2" set="0"/>
          <p>0 0 0 3 0 1 2 0 2 2 1 3 7 1 4 6 1 5 7 2 6 4 2 7 6 2 8 4 3 9 5 3 10 0 3 11 6 4 12 0 4 13 2 4 14 3 5 15 5 5 16 7 5 17 0 6 18 5 6 19 1 6 20 7 7 21 2 7 22 3 7 23 0 8 24 1 8 25 3 8 26 7 2 27 5 2 28 4 2 29 6 4 30 4 4 31 0 4 32 3 9 33 1 9 34 5 9 35</p>
        </triangles>
      </mesh>
    </geometry>
  </library_geometries>
  <library_visual_scenes>
    <visual_scene id="Scene" name="Scene">
      <node id="立方体" name="立方体" type="NODE">
        <matrix sid="transform">1 0 0 3.226569 0 1 0 3.338567 0 0 1 1.494161 0 0 0 1</matrix>
        <instance_geometry url="#立方体-mesh" name="立方体"/>
      </node>
    </visual_scene>
  </library_visual_scenes>
  <scene>
    <instance_visual_scene url="#Scene"/>
  </scene>
</COLLADA>